<svg width="1920.000122" height="1080.000000" viewBox="0 0 1920 1080" fill="none" xmlns="http://www.w3.org/2000/svg" xmlns:xlink="http://www.w3.org/1999/xlink">
	<desc>
			Created with Pixso.
	</desc>
	<defs>
		<filter id="filter_2_41_dd" x="51.778625" y="145.089783" width="232.607300" height="233.317078" filterUnits="userSpaceOnUse" color-interpolation-filters="sRGB">
			<feFlood flood-opacity="0" result="BackgroundImageFix"/>
			<feColorMatrix in="SourceAlpha" type="matrix" values="0 0 0 0 0 0 0 0 0 0 0 0 0 0 0 0 0 0 127 0" result="hardAlpha"/>
			<feOffset dx="0" dy="4"/>
			<feGaussianBlur stdDeviation="15.6667"/>
			<feComposite in2="hardAlpha" operator="out" k2="-1" k3="1"/>
			<feColorMatrix type="matrix" values="0 0 0 0 1 0 0 0 0 1 0 0 0 0 1 0 0 0 0.25 0"/>
			<feBlend mode="normal" in2="BackgroundImageFix" result="effect_dropShadow_1"/>
			<feBlend mode="normal" in="SourceGraphic" in2="effect_dropShadow_1" result="shape"/>
		</filter>
		<filter id="filter_2_49_dd" x="1570.294312" y="101.791870" width="214.988403" height="213.994568" filterUnits="userSpaceOnUse" color-interpolation-filters="sRGB">
			<feFlood flood-opacity="0" result="BackgroundImageFix"/>
			<feColorMatrix in="SourceAlpha" type="matrix" values="0 0 0 0 0 0 0 0 0 0 0 0 0 0 0 0 0 0 127 0" result="hardAlpha"/>
			<feOffset dx="0" dy="4"/>
			<feGaussianBlur stdDeviation="15.6667"/>
			<feComposite in2="hardAlpha" operator="out" k2="-1" k3="1"/>
			<feColorMatrix type="matrix" values="0 0 0 0 1 0 0 0 0 1 0 0 0 0 1 0 0 0 0.25 0"/>
			<feBlend mode="normal" in2="BackgroundImageFix" result="effect_dropShadow_1"/>
			<feBlend mode="normal" in="SourceGraphic" in2="effect_dropShadow_1" result="shape"/>
		</filter>
		<filter id="filter_2_55_dd" x="1750.860840" y="231.887390" width="311.365234" height="308.889893" filterUnits="userSpaceOnUse" color-interpolation-filters="sRGB">
			<feFlood flood-opacity="0" result="BackgroundImageFix"/>
			<feColorMatrix in="SourceAlpha" type="matrix" values="0 0 0 0 0 0 0 0 0 0 0 0 0 0 0 0 0 0 127 0" result="hardAlpha"/>
			<feOffset dx="0" dy="4"/>
			<feGaussianBlur stdDeviation="15.6667"/>
			<feComposite in2="hardAlpha" operator="out" k2="-1" k3="1"/>
			<feColorMatrix type="matrix" values="0 0 0 0 1 0 0 0 0 1 0 0 0 0 1 0 0 0 0.25 0"/>
			<feBlend mode="normal" in2="BackgroundImageFix" result="effect_dropShadow_1"/>
			<feBlend mode="normal" in="SourceGraphic" in2="effect_dropShadow_1" result="shape"/>
		</filter>
		<filter id="filter_2_31_dd" x="432.000000" y="12.000000" width="1056.000000" height="1056.000000" filterUnits="userSpaceOnUse" color-interpolation-filters="sRGB">
			<feFlood flood-opacity="0" result="BackgroundImageFix"/>
			<feBlend mode="normal" in="SourceGraphic" in2="BackgroundImageFix" result="shape"/>
			<feGaussianBlur stdDeviation="133.667" result="effect_layerBlur_1"/>
		</filter>
		<filter id="filter_2_32_dd" x="-150.000000" y="-261.000000" width="1056.000000" height="1056.000000" filterUnits="userSpaceOnUse" color-interpolation-filters="sRGB">
			<feFlood flood-opacity="0" result="BackgroundImageFix"/>
			<feBlend mode="normal" in="SourceGraphic" in2="BackgroundImageFix" result="shape"/>
			<feGaussianBlur stdDeviation="133.667" result="effect_layerBlur_1"/>
		</filter>
		<filter id="filter_2_33_dd" x="1189.000000" y="-467.000000" width="1056.000000" height="1056.000000" filterUnits="userSpaceOnUse" color-interpolation-filters="sRGB">
			<feFlood flood-opacity="0" result="BackgroundImageFix"/>
			<feBlend mode="normal" in="SourceGraphic" in2="BackgroundImageFix" result="shape"/>
			<feGaussianBlur stdDeviation="133.667" result="effect_layerBlur_1"/>
		</filter>
		<filter id="filter_2_16_dd" x="1351.000000" y="614.000000" width="462.000000" height="425.000000" filterUnits="userSpaceOnUse" color-interpolation-filters="sRGB">
			<feFlood flood-opacity="0" result="BackgroundImageFix"/>
			<feColorMatrix in="SourceAlpha" type="matrix" values="0 0 0 0 0 0 0 0 0 0 0 0 0 0 0 0 0 0 127 0" result="hardAlpha"/>
			<feOffset dx="0" dy="0"/>
			<feGaussianBlur stdDeviation="42.3333"/>
			<feComposite in2="hardAlpha" operator="out" k2="-1" k3="1"/>
			<feColorMatrix type="matrix" values="0 0 0 0 0.32941 0 0 0 0 0.92549 0 0 0 0 0.84314 0 0 0 1 0"/>
			<feBlend mode="normal" in2="BackgroundImageFix" result="effect_dropShadow_1"/>
			<feBlend mode="normal" in="SourceGraphic" in2="effect_dropShadow_1" result="shape"/>
		</filter>
		<filter id="filter_2_18_dd" x="80.000000" y="577.000000" width="385.136658" height="415.472778" filterUnits="userSpaceOnUse" color-interpolation-filters="sRGB">
			<feFlood flood-opacity="0" result="BackgroundImageFix"/>
			<feColorMatrix in="SourceAlpha" type="matrix" values="0 0 0 0 0 0 0 0 0 0 0 0 0 0 0 0 0 0 127 0" result="hardAlpha"/>
			<feOffset dx="0" dy="0"/>
			<feGaussianBlur stdDeviation="42.3333"/>
			<feComposite in2="hardAlpha" operator="out" k2="-1" k3="1"/>
			<feColorMatrix type="matrix" values="0 0 0 0 0.32941 0 0 0 0 0.92549 0 0 0 0 0.84314 0 0 0 1 0"/>
			<feBlend mode="normal" in2="BackgroundImageFix" result="effect_dropShadow_1"/>
			<feBlend mode="normal" in="SourceGraphic" in2="effect_dropShadow_1" result="shape"/>
		</filter>
		<filter id="filter_2_19_dd" x="506.000000" y="629.000000" width="344.000000" height="364.000000" filterUnits="userSpaceOnUse" color-interpolation-filters="sRGB">
			<feFlood flood-opacity="0" result="BackgroundImageFix"/>
			<feColorMatrix in="SourceAlpha" type="matrix" values="0 0 0 0 0 0 0 0 0 0 0 0 0 0 0 0 0 0 127 0" result="hardAlpha"/>
			<feOffset dx="0" dy="0"/>
			<feGaussianBlur stdDeviation="42.3333"/>
			<feComposite in2="hardAlpha" operator="out" k2="-1" k3="1"/>
			<feColorMatrix type="matrix" values="0 0 0 0 0.32941 0 0 0 0 0.92549 0 0 0 0 0.84314 0 0 0 1 0"/>
			<feBlend mode="normal" in2="BackgroundImageFix" result="effect_dropShadow_1"/>
			<feBlend mode="normal" in="SourceGraphic" in2="effect_dropShadow_1" result="shape"/>
		</filter>
		<clipPath id="clip2_1">
			<rect id="mushroom and clock" width="1920.000000" height="1080.000000" fill="white" fill-opacity="0"/>
		</clipPath>
		<linearGradient x1="1466.921875" y1="525.042969" x2="6238.812500" y2="8892.246094" id="paint_linear_2_25_0" gradientUnits="userSpaceOnUse">
			<stop stop-color="#E08D33"/>
			<stop offset="1.000000" stop-color="#E08D33" stop-opacity="0.000000"/>
		</linearGradient>
		<linearGradient x1="658.933594" y1="524.955078" x2="-5078.972656" y2="6545.964844" id="paint_linear_2_26_0" gradientUnits="userSpaceOnUse">
			<stop stop-color="#FF9C31"/>
			<stop offset="1.000000" stop-color="#E08D33" stop-opacity="0.000000"/>
		</linearGradient>
		<linearGradient x1="959.999268" y1="130.000000" x2="959.999268" y2="912.000000" id="paint_linear_16_3_0" gradientUnits="userSpaceOnUse">
			<stop stop-color="#F5A046"/>
			<stop offset="1.000000" stop-color="#E08D33" stop-opacity="0.000000"/>
		</linearGradient>
		<linearGradient x1="959.999207" y1="57.000000" x2="959.999207" y2="912.000000" id="paint_linear_2_23_0" gradientUnits="userSpaceOnUse">
			<stop stop-color="#F5A046"/>
			<stop offset="1.000000" stop-color="#E08D33" stop-opacity="0.000000"/>
		</linearGradient>
		<linearGradient x1="959.999817" y1="687.500000" x2="959.999817" y2="827.000000" id="paint_linear_2_37_0" gradientUnits="userSpaceOnUse">
			<stop stop-color="#FF8300"/>
			<stop offset="1.000000" stop-color="#E08D33" stop-opacity="0.000000"/>
		</linearGradient>
	</defs>
	<rect id="mushroom and clock" width="1920.000000" height="1080.000000" fill="#640202" fill-opacity="1.000000"/>
	<g clip-path="url(#clip2_1)">
		<g filter="url(#filter_2_41_dd)">
			<path id="减去顶层" d="M148.479 190.645L117.122 210.875C113.961 212.914 111.62 216.002 110.509 219.596L99.4919 255.249C98.3813 258.843 98.5725 262.713 100.032 266.18L114.51 300.574C115.969 304.041 118.603 306.883 121.95 308.6L155.148 325.641C158.494 327.359 162.339 327.843 166.007 327.007L202.392 318.722C206.059 317.887 209.316 315.786 211.588 312.789L234.135 283.054C236.408 280.057 237.552 276.354 237.366 272.597L235.525 235.327C235.34 231.57 233.836 227.998 231.279 225.239L205.911 197.872C203.354 195.113 199.907 193.343 196.174 192.874L159.15 188.215C155.418 187.745 151.64 188.606 148.479 190.645ZM172.741 208.684C165.594 210.312 161.2 217.783 162.928 225.37C164.656 232.958 171.851 237.79 178.999 236.163C186.146 234.535 190.539 227.064 188.812 219.476C187.084 211.888 179.889 207.057 172.741 208.684ZM145.351 268.114C142.058 268.864 140.033 272.307 140.829 275.803C141.625 279.3 144.941 281.526 148.234 280.776C151.528 280.026 153.552 276.584 152.756 273.087C151.96 269.591 148.645 267.364 145.351 268.114ZM178.422 285.098C175.691 273.104 182.636 261.296 193.933 258.723C205.231 256.15 216.603 263.788 219.334 275.781C222.066 287.775 215.121 299.584 203.824 302.156C192.526 304.729 181.154 297.091 178.422 285.098Z" clip-rule="evenodd" fill="#FFFFFF" fill-opacity="0.300000" fill-rule="evenodd"/>
		</g>
		<g filter="url(#filter_2_49_dd)">
			<path id="减去顶层" d="M1738.07 216.786L1731.67 177.625C1730.89 172.819 1727.96 168.633 1723.71 166.251L1689.1 146.837C1684.86 144.455 1679.76 144.137 1675.25 145.971L1638.49 160.925C1633.98 162.76 1630.55 166.549 1629.17 171.219L1617.95 209.279C1616.57 213.949 1617.39 218.992 1620.19 222.981L1642.94 255.487C1645.74 259.476 1650.19 261.976 1655.05 262.28L1694.66 264.755C1699.52 265.059 1704.25 263.133 1707.52 259.523L1734.15 230.103C1737.41 226.493 1738.86 221.591 1738.07 216.786ZM1714.52 230.188C1716.36 223.952 1712.48 217.314 1705.86 215.361C1699.24 213.409 1692.38 216.881 1690.54 223.117C1688.7 229.353 1692.58 235.991 1699.2 237.944C1705.82 239.896 1712.68 236.424 1714.52 230.188ZM1673.21 197.891C1683.67 200.978 1689.8 211.47 1686.89 221.327C1683.98 231.184 1673.14 236.672 1662.68 233.586C1652.21 230.5 1646.09 220.007 1648.99 210.15C1651.9 200.293 1662.74 194.805 1673.21 197.891ZM1680.41 183.231C1681.26 180.358 1679.47 177.299 1676.42 176.399C1673.37 175.499 1670.21 177.099 1669.36 179.973C1668.51 182.846 1670.3 185.905 1673.35 186.805C1676.4 187.705 1679.56 186.105 1680.41 183.231Z" clip-rule="evenodd" fill="#FFFFFF" fill-opacity="0.300000" fill-rule="evenodd"/>
		</g>
		<g filter="url(#filter_2_55_dd)">
			<path id="减去顶层" d="M2010.81 418.012L1879.41 279.868C1870.92 270.944 1855.95 274.556 1852.47 286.369L1798.53 469.236C1795.05 481.049 1805.66 492.205 1817.63 489.316L1929.13 462.41C1921.42 455.674 1917.81 445.227 1920.76 435.242C1924.88 421.287 1940.22 413.516 1955.04 417.886C1969.85 422.255 1978.53 437.111 1974.41 451.066C1974.37 451.217 1974.32 451.367 1974.27 451.517L2002.97 444.593C2014.94 441.703 2019.3 426.936 2010.81 418.012ZM1876.92 389.186C1893.95 394.209 1903.94 411.211 1899.23 427.162C1894.53 443.113 1876.91 451.972 1859.88 446.949C1842.85 441.927 1832.86 424.924 1837.57 408.974C1842.27 393.023 1859.89 384.164 1876.92 389.186ZM1898.08 345.982C1899.98 339.551 1895.98 332.706 1889.15 330.692C1882.32 328.679 1875.25 332.26 1873.36 338.69C1871.46 345.121 1875.46 351.966 1882.28 353.98C1889.11 355.993 1896.18 352.413 1898.08 345.982Z" clip-rule="evenodd" fill="#FFFFFF" fill-opacity="0.300000" fill-rule="evenodd"/>
		</g>
		<path id="Eclipsed Sonata" d="M949.12 572.08Q946.06 573.61 941.46 573.42Q938.49 573.42 936 572.33Q934.32 571.59 932.85 570.36Q931.42 569.18 930.39 567.71Q928.26 564.67 927.87 560.4L927.68 556Q928.26 547.77 932.28 542.6Q934.86 539.16 938.31 537.44Q939.45 536.86 940.7 536.48Q943.38 535.71 946.82 535.9L949.69 536.29L951.99 536.86L951.99 511.41Q952.09 509.3 953.19 508.25Q954.29 507.19 956.39 507.19Q958.6 507.19 959.7 508.3Q960.8 509.4 960.8 511.6L960.8 569.59Q960.8 571.79 959.7 572.89Q958.6 574 956.39 574Q954.39 574 953.29 573Q952.18 572 951.99 569.98L951.23 570.93L949.12 572.08ZM1060.25 515.38Q1059.19 516.38 1057.18 516.38L1035.37 516.38Q1034.86 516.38 1034.37 516.46Q1032.26 516.82 1030.39 518.68Q1029.69 519.42 1029.18 520.26Q1027.42 523.15 1027.71 527.29Q1027.85 530.48 1029.42 532.61Q1032.46 536.74 1040.92 536.86L1045.71 536.86Q1051.18 536.86 1055.37 539.2Q1057.17 540.21 1058.72 541.65Q1060.49 543.3 1061.68 545.29Q1064.54 549.99 1064.27 556.58Q1063.99 564.6 1059.84 568.87Q1058.43 570.31 1056.62 571.32Q1053.93 573.04 1050.11 573.61Q1047.43 574 1043.98 574L1027.91 574Q1025.89 574 1024.84 572.99Q1023.7 571.89 1023.7 569.59Q1023.7 567.49 1024.75 566.43Q1025.8 565.38 1027.91 565.38L1041.11 565.38Q1050.92 565.25 1053.93 560.65Q1055.17 558.79 1055.28 556.19Q1055.54 551.56 1053.36 548.91Q1052.31 547.63 1050.68 546.82Q1049.15 545.86 1047.05 545.67L1045.71 545.48L1039.39 545.28Q1036.32 545.28 1033.65 544.71Q1029.81 543.94 1026.94 542.41Q1024 540.76 1022.11 538.3Q1018.96 534.2 1018.72 527.87Q1018.48 521.95 1020.9 517.48Q1022.32 514.86 1024.65 512.75Q1028.01 509.5 1031.98 508.37Q1034.32 507.7 1036.9 507.77L1057.18 507.77Q1059.3 507.77 1060.35 508.82Q1061.4 509.87 1061.4 511.98Q1061.4 514.28 1060.25 515.38ZM600.58 571.66Q600.08 570.77 600.08 569.59L600.08 512.17Q600.08 510.99 600.58 510.11Q600.9 509.55 601.42 509.11Q601.86 508.59 602.41 508.28Q603.3 507.77 604.48 507.77L633.57 507.77Q634.16 507.77 634.7 507.92Q635.75 508.22 636.64 509.11Q637.15 509.55 637.47 510.11Q637.98 510.99 637.98 512.17Q637.98 512.76 637.82 513.3Q637.52 514.35 636.64 515.23Q635.9 515.87 635.05 516.15Q634.35 516.38 633.57 516.38L608.88 516.38L608.88 536.67L634.34 536.67Q634.92 536.67 635.46 536.83Q636.52 537.13 637.4 538.01Q638.29 538.9 638.59 539.95Q638.74 540.49 638.74 541.07Q638.74 542.25 638.23 543.14Q637.92 543.69 637.4 544.14Q636.52 545.02 635.46 545.32Q634.92 545.48 634.34 545.48L608.88 545.48L608.88 565.19L633.57 565.19Q634.35 565.19 635.05 565.42Q635.9 565.71 636.64 566.34Q637.52 567.22 637.82 568.28Q637.98 568.82 637.98 569.4Q637.98 570.58 637.47 571.47Q637.15 572.02 636.64 572.46Q635.75 573.35 634.7 573.65Q634.16 573.8 633.57 573.8L605.82 573.8Q605.25 574 604.48 574Q603.89 574 603.35 573.84Q602.3 573.54 601.42 572.65Q600.9 572.21 600.58 571.66ZM720.61 508.81Q721.82 509.85 721.93 512.17L721.93 569.78Q721.82 572.1 720.61 573.14Q719.63 574 717.91 574Q716.08 574 715.08 573.09Q713.89 571.99 713.89 569.59L713.89 512.17Q713.89 509.97 714.99 508.92Q715.99 507.96 717.91 507.96Q719.63 507.96 720.61 508.81ZM745.67 509.16Q746.86 507.96 749.26 507.96Q751.65 507.96 752.85 509.16Q754.04 510.35 754.04 512.75Q754.04 514.95 752.94 516.09Q751.75 517.34 749.26 517.34Q746.77 517.34 745.57 516.09Q744.47 514.95 744.47 512.75Q744.47 510.35 745.67 509.16ZM752.27 528.34Q753.37 529.4 753.47 531.5L753.47 569.78Q753.37 571.89 752.27 572.95Q751.17 574 749.07 574Q746.96 574 745.91 572.94Q744.85 571.89 744.85 569.78L744.85 531.69Q744.85 529.4 746 528.3Q747.05 527.29 749.07 527.29Q751.17 527.29 752.27 528.34ZM845.65 531.69L847.37 531.69Q850.75 531.69 853.45 533.05Q853.96 533.3 854.45 533.61Q856.79 535.09 857.78 537.2Q858.34 538.37 858.47 539.73L858.66 540.88Q858.66 542.1 858.07 542.88Q857.28 543.92 855.41 544.14Q853.41 544.26 852.47 543.32Q851.97 542.83 851.77 542.03L851.58 539.54L851.2 538.2L850.62 536.86Q850.36 536.49 850.02 536.21Q849.13 535.47 847.75 535.33L845.65 535.33Q842.54 535.76 840.99 537.54Q840.45 538.17 840.1 538.97L839.33 541.65L839.14 544.14L839.33 547.2Q840.01 549.49 841.53 550.55Q842.17 550.99 842.97 551.22Q844.12 551.41 845.27 551.41L847.37 551.6L849.86 552.37Q853.3 553.32 855.22 554.85Q857.05 556.53 857.67 558.58Q857.82 559.1 857.9 559.64L858.09 562.32Q857.89 564.09 857.22 565.66Q856.02 568.52 853.3 570.74Q852.91 571.07 852.5 571.37Q849.29 573.7 844.88 574.38Q841.63 574.76 839.14 574.76Q836.61 574.76 834.22 574.17Q833.9 574.09 833.59 574L832.25 573.42L830.53 572.27Q829.56 571.55 828.87 570.62Q827.91 569.34 827.46 567.68Q826.74 564.8 827.38 562.25Q827.42 562.09 827.46 561.94Q828 559.79 829.29 559.15Q829.84 558.87 830.53 558.87Q832.01 558.75 832.86 559.43Q833.32 559.8 833.59 560.4L833.78 561.55L833.78 564.04L833.97 566.91Q834.59 568.76 835.87 569.78Q836.97 570.67 838.57 570.93Q839.91 571.12 841.25 571.12Q845.98 570.6 847.99 567.98Q848.17 567.74 848.33 567.49L849.09 564.62L849.48 562.13L849.09 559.26L848.71 557.92L847.94 556.77Q846.8 555.43 844.5 555.05Q836.84 554.09 834.35 551.22L833.78 550.64L833.59 550.26Q833.4 549.95 833.24 549.63Q832.59 548.35 832.44 546.82L832.25 544.14Q832.51 540.68 834.13 538.08Q834.94 536.79 836.08 535.71Q836.65 535.14 837.29 534.64Q839.62 532.83 842.78 532.08L845.65 531.69ZM787.31 533.99Q790.56 532.65 795.35 532.65Q798.35 532.77 801 533.79Q802.75 534.46 804.34 535.52Q806.5 537.05 807.73 539.13Q809.12 541.48 809.32 544.52L809.7 548.35Q809.23 554.43 806.22 558.74Q805.54 559.71 804.73 560.6Q803.08 562.51 801.05 563.82Q798.82 565.26 796.11 565.96Q793.24 566.72 789.6 566.34L786.73 566.15L784.25 565.57L784.25 588.54Q784.25 590.19 783.43 591.13Q782.35 592.37 779.84 592.37Q777.13 592.37 776.02 591.04Q775.25 590.11 775.25 588.54L775.25 536.1Q775.25 534.53 776.02 533.6Q777.13 532.27 779.84 532.27Q782.06 532.27 783.18 533.38Q784.07 534.28 784.25 535.9L785.2 535.14L787.31 533.99ZM1142.15 572.8Q1140.94 571.6 1140.94 569.21L1140.94 537.05Q1140.94 534.66 1142.15 533.46Q1143.34 532.27 1145.73 532.27Q1147.11 532.27 1148.1 532.89Q1149.31 533.65 1149.94 535.33Q1150.34 535.02 1150.76 534.74Q1152.15 533.81 1153.77 533.23Q1156.64 532.27 1160.09 532.46Q1166.22 532.84 1169.53 536.09Q1174.61 541.06 1173.11 552.75L1172.91 569.78Q1172.91 571.7 1171.96 572.65Q1171 573.61 1169.09 573.61Q1167.17 573.61 1166.21 572.65Q1165.26 571.7 1165.26 569.78L1165.26 552.75Q1165.26 541.76 1161.02 539.76Q1160.75 539.63 1160.47 539.54Q1157.26 538.62 1154.8 539.6Q1152.12 540.66 1150.32 543.94L1150.32 569.4Q1150.23 571.8 1148.98 572.95Q1147.84 574 1145.73 574Q1143.34 574 1142.15 572.8ZM1108.21 572.05Q1106.59 572.81 1104.81 573.23Q1101.18 574.19 1098.11 574Q1094.82 573.89 1091.99 572.71Q1089.86 571.84 1087.97 570.36Q1085.54 568.54 1084.1 566.13Q1082.35 563.22 1082.04 559.45L1081.84 554.66Q1082.34 546.84 1086.18 541.33Q1086.75 540.5 1087.39 539.73Q1089.91 536.74 1093.1 534.94Q1095.01 533.87 1097.16 533.23Q1098.88 532.65 1101.37 532.65L1102.9 532.46L1103.86 532.65Q1107.09 532.65 1109.9 533.74Q1112.07 534.59 1114 536.1Q1116.1 537.73 1117.47 539.83Q1119.48 542.91 1119.93 547.01L1120.12 551.79Q1119.6 560.18 1115.41 565.86Q1115.01 566.4 1114.56 566.91Q1111.8 570.35 1108.21 572.05ZM1193.24 564.97Q1192.66 563.35 1192.59 561.55Q1192.49 556.87 1194.64 553.71Q1196.8 550.55 1201.19 548.92L1208.29 547.39L1211.16 547.01L1213.44 546.82Q1213.11 544.12 1211.69 542.22Q1210 539.93 1206.75 538.78Q1202.43 537.14 1200.31 538.63Q1199.71 539.05 1199.29 539.73Q1200.44 540.15 1201.03 540.98Q1201.5 541.66 1201.59 542.6Q1201.88 544.34 1201.14 545.3Q1200.43 546.24 1198.71 546.43Q1197.18 546.7 1196.24 546.08Q1195.18 545.38 1194.89 543.56L1194.89 541.65Q1195.09 539.9 1195.87 538.48Q1198.01 534.58 1204.46 533.03Q1209.71 531.85 1213.55 533.67Q1220.89 537.14 1223.02 551.6Q1223.98 558.3 1223.02 562.51L1223.79 566.53L1225.13 569.4Q1225.41 569.63 1225.71 569.65Q1226.43 569.71 1227.23 568.64Q1228.38 567.3 1228.38 565.96L1229.15 565.77Q1229.96 567.76 1229.41 569.24Q1228.52 571.6 1224.17 572.65Q1222.01 573.32 1220.72 572.54Q1220.52 572.42 1220.34 572.27L1218.62 569.59L1215.18 571.89L1211.73 573.23L1209.43 573.8Q1204.75 574.47 1200.94 572.95Q1200.4 572.73 1199.86 572.46L1198.71 571.7L1196.23 569.59Q1194.13 567.49 1193.24 564.97ZM1288.29 564.97Q1287.72 563.35 1287.64 561.55Q1287.54 556.87 1289.68 553.71Q1291.85 550.55 1296.25 548.92L1303.34 547.39L1306.21 547.01L1308.5 546.82Q1308.16 544.12 1306.75 542.22Q1305.05 539.93 1301.8 538.78Q1297.49 537.14 1295.37 538.63Q1294.76 539.05 1294.34 539.73Q1295.5 540.15 1296.07 540.98Q1296.55 541.66 1296.64 542.6Q1296.93 544.34 1296.19 545.3Q1295.48 546.24 1293.77 546.43Q1292.23 546.7 1291.29 546.08Q1290.24 545.38 1289.93 543.56L1289.93 541.65Q1290.14 539.9 1290.92 538.48Q1293.06 534.58 1299.51 533.03Q1304.76 531.85 1308.6 533.67Q1315.94 537.14 1318.07 551.6Q1319.03 558.3 1318.07 562.51L1318.84 566.53L1320.18 569.4Q1320.46 569.63 1320.76 569.65Q1321.48 569.71 1322.29 568.64Q1323.43 567.3 1323.43 565.96L1324.2 565.77Q1325.01 567.76 1324.46 569.24Q1323.57 571.6 1319.22 572.65Q1317.06 573.32 1315.77 572.54Q1315.57 572.42 1315.39 572.27L1313.67 569.59L1310.23 571.89L1306.78 573.23L1304.48 573.8Q1299.8 574.47 1296 572.95Q1295.44 572.73 1294.91 572.46L1293.77 571.7L1291.28 569.59Q1289.18 567.49 1288.29 564.97ZM1264.62 567.57Q1265.17 567.3 1265.86 567.3Q1267.49 567.3 1268.25 568.11Q1268.92 568.82 1268.92 570.17Q1268.92 571.27 1268.39 571.98Q1267.81 572.74 1266.62 573.04Q1265.52 573.59 1264.35 573.82Q1263.5 574 1262.61 574L1261.84 574Q1254.87 574.1 1251.86 570.7Q1249.32 567.84 1249.59 562.51L1249.59 547.01L1247.1 547.01Q1246.05 547.01 1245.52 546.48Q1245 545.95 1245 544.9Q1245 543.94 1245.47 543.47Q1245.94 542.99 1246.91 542.99L1249.59 542.99L1249.59 536.1Q1249.59 534.37 1250.44 533.51Q1251.31 532.65 1253.04 532.65Q1254.66 532.65 1255.52 533.46Q1256.38 534.28 1256.48 535.9L1256.48 542.99L1265.09 542.99Q1266.05 542.99 1266.53 543.47Q1267.01 543.94 1267.01 544.9Q1267.01 545.95 1266.48 546.48Q1265.96 547.01 1264.9 547.01L1256.48 547.01L1256.48 561.17Q1256.48 567.03 1258.82 568.21Q1259.16 568.37 1259.54 568.44Q1261.46 568.83 1262.99 568.44L1263.94 568.06Q1264.25 567.76 1264.62 567.57ZM680.43 573.23Q676.98 574.19 674.3 574Q671.62 573.9 669.21 573.05Q666.63 572.14 664.35 570.36Q662.44 568.94 661.1 567.1Q658.83 563.98 658.23 559.64L657.65 554.85Q657.65 545.86 661.86 539.93Q663.99 536.97 666.85 535.18Q668.62 534.08 670.67 533.42Q672.39 533.03 674.5 532.84L676.79 532.84Q680.49 532.84 683.59 534.2Q685.15 534.88 686.55 535.9Q688.74 537.5 690.15 539.62Q691.95 542.32 692.49 545.86L692.68 547.77L692.87 548.92Q692.87 551.12 691.77 552.27Q690.58 553.52 688.09 553.52Q686.43 553.52 685.33 552.73Q684.4 552.07 683.87 550.84L683.87 550.45L683.49 548.92L683.49 548.54L683.3 546.62L682.73 544.33L681.77 542.22Q680.67 540.43 679.07 539.63Q678.45 539.32 677.75 539.16L674.88 539.16Q672.21 539.62 670.47 541.14Q668.59 542.78 667.8 545.67L667.03 550.45L667.03 555.05L667.8 560.02Q669.17 565.52 672.4 567.01Q672.76 567.18 673.16 567.3Q674.5 567.68 676.03 567.49Q684.07 567.1 686.36 563.28Q687.26 562.05 688.22 561.99Q688.9 561.95 689.62 562.51Q690.3 563.11 690.45 563.81Q690.64 564.7 690 565.77Q687.38 570.04 683.56 572.03Q682.09 572.8 680.43 573.23ZM897.29 573.23Q893.84 574.19 891.16 574Q888.48 573.9 886.07 573.05Q883.49 572.14 881.21 570.36Q879.3 568.94 877.96 567.1Q875.69 563.98 875.09 559.64L874.51 554.85Q874.51 545.86 878.72 539.93Q880.85 536.97 883.71 535.18Q885.48 534.08 887.53 533.42Q889.25 533.03 891.35 532.84L893.65 532.84Q896.81 532.84 899.61 533.84Q901.39 534.48 903.03 535.52Q905.25 537.03 906.73 539.08Q908.44 541.44 909.16 544.52Q909.54 546.05 909.54 548.35L909.54 548.54Q909.54 551.15 908.37 553.03Q905.94 556.95 898.44 557.73Q894.61 558.11 889.82 557.53L886.38 557.15L884.08 556.77L884.66 560.02Q886.03 565.52 889.25 567.01Q889.62 567.18 890.02 567.3Q891.35 567.68 892.89 567.49Q900.93 567.1 903.22 563.28Q904.35 562.02 905.4 562.08Q905.95 562.12 906.48 562.51Q907.04 562.94 907.24 563.5Q907.58 564.44 906.86 565.77Q904.24 570.04 900.42 572.03Q898.95 572.8 897.29 573.23ZM786.35 560.21Q788.07 561.55 791.33 561.36Q795.28 561.12 797.56 559.03Q798.81 557.89 799.56 556.19Q800.13 554.47 800.52 552.18L800.71 548.15L800.52 544.14Q800.15 542.2 799.03 540.94Q797.82 539.56 795.73 538.97Q793.05 538.2 789.41 539.54Q785.78 540.88 784.25 542.8L784.25 557.53L785.01 558.87L786.35 560.21ZM1092.18 550.45L1091.8 554.85L1092.18 560.02Q1093.06 564.59 1095.77 566.33Q1096.56 566.84 1097.54 567.1Q1098.68 567.53 1099.84 567.53Q1100.22 567.53 1100.6 567.49Q1103.93 566.97 1106.06 565.09Q1107.87 563.52 1108.82 560.98L1109.79 556.19L1110.17 551.6L1109.79 546.62L1109.21 544.14L1108.26 542.03Q1107.53 540.68 1106.41 539.89Q1105.46 539.23 1104.24 538.97L1101.37 538.97Q1098.04 539.49 1095.9 541.36Q1094.1 542.94 1093.14 545.48L1092.18 550.45ZM896.76 540.14Q895.82 539.46 894.61 539.16L891.74 539.16Q889.07 539.62 887.31 541.14Q886.17 542.13 885.42 543.56Q884.08 546.05 883.89 550.64L885.23 551.6L887.72 552.75Q891.35 553.9 895.95 553.32Q898.03 553.18 899.12 552.06Q900.92 550.21 899.97 545.67Q899.2 542.99 898.25 541.65Q897.61 540.74 896.76 540.14ZM949.83 542.78Q948.14 541.47 945.29 541.65Q941.91 541.97 939.84 543.79Q938.27 545.16 937.44 547.39Q936.68 549.3 936.49 551.98L936.1 556.19L936.49 560.79Q936.94 563.4 938.48 564.94Q939.53 565.99 941.08 566.53Q943.57 567.49 947.21 565.96Q950.65 564.43 951.99 562.13L951.99 546.05L951.42 544.52L950.08 542.99Q949.96 542.88 949.83 542.78ZM1207.32 552.18Q1202.93 553.9 1200.81 556.77Q1200.31 557.48 1200.06 558.28Q1199.42 560.47 1200.81 563.28Q1201.82 565.12 1203.37 566.2Q1205.04 567.38 1207.32 567.68L1210.01 567.49Q1212.36 566.61 1213.71 564.92Q1214.99 563.31 1215.37 560.98L1215.56 556.77L1214.98 552.75Q1214.81 551.04 1214.49 551.01Q1214.44 551.01 1214.41 551.03Q1212.54 551.03 1210.73 551.33Q1209 551.62 1207.32 552.18ZM1302.38 552.18Q1297.98 553.9 1295.87 556.77Q1295.36 557.48 1295.12 558.28Q1294.47 560.47 1295.87 563.28Q1296.88 565.12 1298.42 566.2Q1300.09 567.38 1302.38 567.68L1305.06 567.49Q1307.41 566.61 1308.76 564.92Q1310.04 563.31 1310.42 560.98L1310.61 556.77L1310.04 552.75Q1309.86 551.04 1309.54 551.01Q1309.5 551.01 1309.46 551.03Q1307.59 551.03 1305.78 551.33Q1304.05 551.62 1302.38 552.18Z" fill="#FFFFFF" fill-opacity="1.000000" fill-rule="evenodd"/>
		<path id="佚失的鸣奏" d="M658.93 337.72Q658.89 337.18 651.92 337.18L645.18 337.18L644.91 337.99Q644.91 338.8 643.84 342.84Q643.03 346.62 641.14 351.47Q639.52 356.05 637.37 360.36Q635.21 364.68 632.78 368.99Q630.9 372.49 628.47 376Q626.59 378.96 626.59 379.36Q626.59 379.57 626.69 379.67Q626.79 379.77 626.99 379.77Q627.39 379.77 629.82 378.69Q632.78 377.61 634.94 376L638.98 373.3L640.87 371.68L641.14 414L641.14 456.32L643.3 456.32Q644.62 456.32 645.81 455.92Q646.32 455.75 646.8 455.51Q648.42 454.7 649.77 453.08Q651.11 451.46 651.92 449.85Q652.46 447.96 652.73 446.07Q653 443.92 653 399.44L653 354.97L654.35 352.55Q655.43 349.85 656.5 346.62Q657.85 342.84 658.39 340.42Q658.93 337.99 658.93 337.72L658.93 337.72ZM1230.34 337.18L1219.56 337.18L1219.56 345.27L1219.29 353.09L1203.66 353.09L1188.02 353.35L1188.02 358.21L1219.29 358.21L1219.56 363.06L1219.56 367.91L1196.11 367.91L1196.11 373.3L1207.43 373.3Q1218.74 373.3 1218.75 373.57Q1218.75 373.84 1217.93 376Q1217.13 378.69 1216.31 380.31L1215.52 382.73L1198 382.73L1180.48 383L1180.48 388.12L1196.38 388.39L1212.55 388.39L1210.66 390.82Q1209.05 393.25 1206.89 395.94Q1204.46 398.64 1202.04 401.06Q1199.61 402.95 1197.46 404.84Q1196.38 405.91 1191.53 408.88Q1187.21 411.84 1182.09 414.54Q1177.24 416.96 1174.55 418.04Q1172.12 419.12 1171.85 419.39Q1171.57 419.93 1171.57 420.33Q1171.57 420.4 1171.61 420.45Q1171.76 420.69 1172.66 420.47Q1173.74 420.2 1177.51 418.85Q1181.55 417.77 1186.68 415.62Q1191.8 413.73 1196.65 411.3Q1201.23 408.88 1205 406.45Q1208.78 404.03 1211.74 401.6Q1214.71 399.18 1217.54 396.21Q1220.37 393.25 1222.25 390.82L1224.14 388.39L1251.9 388.39L1252.43 389.2Q1252.98 389.74 1255.94 394.05Q1258.91 398.1 1261.19 401.06Q1263.49 404.03 1266.73 407.26Q1269.96 410.5 1272.39 412.65Q1274.54 414.54 1277.24 416.43Q1279.66 418.04 1282.36 419.39Q1284.79 420.74 1287.48 421.82Q1290.18 422.89 1292.6 423.43Q1294.76 423.97 1297.44 424.24L1300.15 424.24L1300.15 415.08L1296.64 414.54Q1293.14 413.73 1289.91 412.65Q1286.67 411.57 1283.43 409.96Q1280.19 408.34 1277.24 406.45Q1274.27 404.84 1271.57 402.68Q1268.88 400.79 1266.18 398.37Q1263.22 395.94 1259.99 392.44Q1256.48 388.66 1256.48 388.53Q1256.49 388.39 1272.93 388.39L1289.64 388.39L1289.64 382.73L1226.84 382.73L1227.91 380.31Q1228.72 378.15 1229.26 375.73L1229.8 373.3L1272.39 373.3L1272.39 367.91L1230.34 367.91L1230.34 358.21L1279.66 358.21L1279.66 353.35L1230.34 353.35L1230.34 337.18ZM805.82 340.69L793.96 340.69L793.69 341.5Q793.69 341.77 792.89 345.27Q792.08 348.23 790.73 351.74Q789.92 354.16 788.3 358.21Q786.69 361.71 785.07 364.68Q783.18 368.45 780.76 372.22Q778.33 376 775.37 380.04L772.67 383.81L772.67 386.24Q772.67 388.91 772.94 388.93Q772.94 388.93 772.94 388.93Q773.21 388.93 779.41 382.73Q785.34 376.53 788.57 372.63Q791.81 368.72 792.08 368.18Q792.35 367.64 805.82 367.64L819.03 367.64L819.03 392.17L770.25 392.17L770.25 397.56L819.03 397.56L819.03 398.64Q819.03 399.71 818.49 402.41Q817.95 404.84 816.87 407.8Q815.8 410.77 814.45 413.46L811.21 419.39Q809.06 422.35 806.9 424.78Q804.48 427.75 802.05 429.9Q799.35 432.6 797.47 434.21Q795.31 436.1 792.35 437.99Q789.38 440.41 785.61 442.3Q782.1 444.73 777.25 446.88Q772.13 449.31 770.78 449.98Q769.44 450.66 769.17 450.93Q768.9 451.19 768.9 451.87Q768.9 452.36 769.12 452.5Q769.2 452.54 769.3 452.54Q769.71 452.54 776.18 449.85Q783.45 446.88 786.69 445.53Q791.27 443.38 795.31 441.22Q799.62 439.07 803.4 436.77Q804.85 435.89 806.26 434.95Q808.52 433.45 810.68 431.79Q814.18 429.09 816.6 426.94Q819.3 424.51 820.92 422.09Q822.53 420.2 824.15 418.04Q825.5 415.89 826.85 413.46Q827.12 412.92 827.39 412.65Q828.03 411.37 828.33 411.44Q828.41 411.46 828.46 411.57Q828.46 411.84 830.62 416.43Q832.78 420.47 834.66 423.7Q836.82 426.67 839.25 429.63Q841.67 432.6 844.91 435.83Q848.14 439.07 851.24 441.49Q854.34 443.92 857.84 446.34Q861.35 448.77 861.62 448.77L861.62 448.77Q861.89 448.76 861.89 442.3L861.89 436.1L858.65 433.94Q855.42 431.52 852.18 428.82Q848.41 425.86 844.64 422.09Q840.59 418.04 838.44 415.35Q836.01 412.38 834.12 409.69Q831.97 406.72 831.16 405.37L830.08 403.76L830.35 401.06Q830.62 398.1 830.62 397.83Q830.62 397.56 852.72 397.56L874.55 397.29L874.55 392.44L852.72 392.44L830.62 392.17L830.62 367.64L857.3 367.64L857.3 364.94L857.57 362.52L830.62 362.52L830.62 340.69L819.03 340.69L819.03 362.52L796.39 362.52L796.93 361.44Q797.74 360.09 798.28 359.28Q798.82 358.48 800.43 355.24Q802.05 352.01 802.59 350.66Q803.13 349.31 803.94 347.43Q804.75 345.27 805.28 343.11Q805.82 340.96 805.82 340.69ZM981.02 342.3Q976.71 340.69 976.44 340.69Q976.17 340.69 975.76 341.5Q975.36 342.3 974.68 345.4Q974.01 348.5 972.66 354.43Q971.59 358.21 969.7 364.14Q967.81 369.26 966.19 374.11Q964.85 377.34 962.69 382.73Q960.8 386.78 958.92 391.09Q957.03 395.4 956.76 395.4Q956.49 395.4 956.49 377.07L956.49 358.75L945.17 358.75L944.9 360.36L944.9 361.98L938.16 361.98Q931.16 362.25 931.16 362.11Q931.16 361.98 934.39 358.75Q937.09 356.05 939.51 353.35Q941.67 350.93 942.48 348.77Q943.55 346.35 943.42 346.08Q943.28 345.81 940.05 344.19Q936.84 342.58 936.68 342.84L936.68 342.84Q936.55 343.11 935.47 346.35Q934.66 349.31 932.23 353.89Q929.81 358.75 928.73 360.36L927.65 361.98L925.77 361.98L923.61 362.25L923.61 358.75L912.02 358.75L912.02 450.93L913.91 450.93Q915.23 450.93 916.41 450.53Q916.92 450.36 917.41 450.12Q919.03 449.31 920.1 448.23Q921.18 447.15 921.99 445.27Q922.8 443.65 923.07 441.76L923.34 439.87L945.17 439.87L945.17 450.93L947.06 450.93Q948.38 450.93 949.57 450.53Q950.08 450.36 950.56 450.12Q952.18 449.31 953.26 448.23Q954.34 446.88 955.01 445.53Q955.68 444.19 955.95 442.57Q956.49 440.95 956.49 418.31Q956.49 395.67 956.76 395.67Q957.03 395.67 957.3 396.21Q957.3 396.35 957.37 396.41Q957.43 396.48 957.57 396.48Q957.84 396.48 961.88 390.28Q966.46 383.27 969.16 378.69Q972.66 373.57 974.01 370.6L975.63 367.91L996.38 367.91L996.38 410.23L996.65 452.81L998 452.81Q999.08 452.81 1000.7 452.41Q1002.32 452 1003.8 450.52Q1005.28 449.04 1006.36 447.15Q1007.17 445.27 1007.71 442.57Q1007.98 439.6 1007.98 400.25L1007.98 360.36L996.38 360.36L996.38 362.79L987.76 362.79Q978.86 362.79 978.86 362.65Q978.86 362.52 979.67 360.63Q980.48 359.02 982.91 351.47Q985.33 344.19 985.33 343.92Q985.33 343.65 981.02 342.3ZM1126.03 340.69L1114.43 340.69L1113.63 343.38Q1112.55 346.35 1111.48 348.23Q1110.93 349.58 1109.59 351.74Q1108.24 353.62 1106.89 354.97Q1106.03 355.83 1105 356.35Q1104.74 356.48 1104.47 356.59Q1103.12 357.13 1102.57 357.13Q1102.56 357.13 1102.56 357.13Q1102.04 357.05 1102.04 353.62L1102.04 349.85L1096.92 349.85L1091.8 350.12L1091.8 412.38L1093.15 412.38Q1094.5 412.65 1096.38 411.57L1098.27 410.77L1136.81 410.77L1136.81 452.54L1138.16 452.54Q1139.5 452.54 1140.65 452.08Q1140.89 451.98 1141.12 451.87Q1142.47 451.19 1143.81 449.71Q1145.17 448.23 1145.98 446.88Q1146.52 445.53 1146.79 443.11Q1147.31 440.68 1147.31 422.62L1147.31 404.57L1142.19 404.57Q1136.81 404.57 1136.68 404.97Q1136.54 405.37 1119.02 405.37L1101.5 405.37L1101.77 404.84Q1102.04 404.3 1102.04 383.27L1102.31 362.52L1131.68 362.52L1131.96 378.42L1131.96 394.32L1133.31 394.32Q1134.66 394.32 1136 393.78Q1136.75 393.54 1137.38 393.11Q1138.12 392.62 1138.69 391.9Q1140.05 390.55 1140.59 389.47Q1141.12 388.39 1141.66 386.78Q1142.19 385.16 1142.47 369.53L1142.47 353.89L1131.96 353.89L1131.96 357.13L1109.59 357.13L1111.48 356.59L1115.25 354.7Q1117.68 353.35 1119.29 352.01Q1120.91 350.66 1122.53 348.77Q1123.88 346.89 1124.94 344.46Q1125.76 342.3 1125.76 341.5L1126.03 340.69ZM709.33 342.57L697.74 342.57L697.74 352.01L697.47 361.71L689.66 361.71L681.84 361.98L682.38 359.55Q683.19 357.94 684.27 353.89Q685.07 350.39 685.07 349.85Q685.07 349.85 685.07 349.84Q685.02 349.31 679.68 349.31L674.29 349.31L674.29 350.12Q674.29 350.93 673.75 354.7Q673.48 358.21 672.68 361.98Q671.87 366.02 670.52 370.6Q669.17 375.46 667.02 381.12L664.86 387.05Q664.86 387.05 664.86 387.05Q664.89 387.32 667.02 387.32L669.17 387.32L671.06 384.08Q672.94 380.85 675.37 376.27Q677.53 372.22 678.6 369.53L679.68 367.1L688.58 367.1L697.47 367.37L697.47 392.17L662.7 392.17L662.7 397.56L679.95 397.56Q697.47 397.56 697.61 397.96Q697.74 398.37 697.47 401.33Q697.2 404.3 696.39 407.53Q695.59 410.23 694.51 413.19Q693.16 416.43 691.81 419.12Q690.46 422.09 688.31 425.05Q686.42 428.02 684.27 430.98Q681.84 433.94 678.6 436.91Q675.1 440.41 672.41 442.84Q669.44 445.27 665.94 447.69L659.47 452Q657.31 453.35 656.91 453.76Q656.81 453.85 656.74 453.96Q656.5 454.32 656.5 454.83Q656.5 455.51 656.64 455.64Q656.77 455.78 657.31 455.51Q658.39 455.24 660.55 454.16Q663.24 453.35 667.82 450.93Q672.41 448.77 675.37 447.15Q678.87 445 682.24 442.84Q685.61 440.68 688.04 438.53Q690.46 436.64 692.35 435.02L696.66 430.71Q698.55 428.55 700.17 426.13Q702.05 423.7 703.13 422.09Q704.21 420.47 705.56 417.23L706.91 414.54L708.79 418.58Q710.95 422.89 713.24 426.26Q715.53 429.63 717.96 432.6Q720.38 435.56 723.62 438.53Q726.31 441.22 730.09 444.19Q733.05 446.61 737.09 449.58L740.87 452.27L740.87 445.8L741.14 439.07L740.06 438.53Q739.25 437.72 734.94 434.48Q731.16 431.79 726.85 428.02Q722.54 424.24 719.57 420.74Q716.61 417.77 713.91 414Q710.95 410.23 709.87 408.34Q708.79 406.18 708.93 405.78Q709.06 405.37 709.33 401.6L709.33 397.56L739.25 397.56L739.25 392.17L709.33 392.17L709.33 367.1L729.01 367.1L729.01 361.98L709.33 361.98L709.33 342.57ZM1060.27 360.49Q1060.24 360.09 1054.61 360.09L1048.94 360.09L1048.94 430.98L1050.82 430.98Q1052.44 430.98 1053.8 430.44Q1055.14 429.9 1056.49 428.55L1058.11 426.94L1070.78 426.94L1070.78 430.98L1072.66 430.98Q1074.28 430.98 1076.3 430.04Q1078.21 429.14 1079.28 427.65Q1079.34 427.56 1079.4 427.48Q1080.3 426.58 1080.84 425.5Q1081.11 424.96 1081.29 424.38Q1081.82 422.62 1082.1 420.74Q1082.37 418.85 1082.37 389.47L1082.37 360.09L1076.71 360.09Q1070.8 360.09 1070.78 360.49L1070.78 360.5L1070.78 360.5Q1070.75 360.9 1065.52 360.9Q1060.3 360.9 1060.27 360.5L1060.27 360.5L1060.27 360.49ZM1116.87 369.8Q1114.17 367.91 1112.81 367.37L1111.48 366.29L1110.93 367.37Q1110.4 368.99 1108.78 372.49Q1107.19 376.71 1107.42 376.8Q1107.43 376.8 1107.43 376.8L1111.75 379.23Q1116.32 382.19 1118.75 383.81Q1121.72 385.97 1123.74 387.85Q1125.76 389.74 1126.17 389.74Q1126.18 389.74 1126.18 389.74Q1126.56 389.65 1126.3 386.78Q1126.03 383.81 1125.63 381.66Q1125.39 380.39 1124.92 379.22Q1124.59 378.39 1124.14 377.61Q1123.06 375.46 1121.18 373.57Q1119.56 371.68 1116.87 369.8ZM1060.27 366.56L1070.78 366.56L1070.78 421.82L1060 421.82L1060.27 421.01L1060.27 366.56ZM923.61 367.37L945.17 367.37L945.17 395.94L923.61 395.94L923.61 367.37ZM968.83 388.67Q968.6 388.73 968.49 389.2Q968.46 389.31 968.46 389.42Q968.46 389.85 968.89 390.28Q969.97 392.17 970.78 393.52Q972.39 395.67 974.01 398.91Q975.63 402.14 976.17 404.84Q976.26 405.18 976.35 405.53Q977.01 408.16 977.25 410.9Q977.52 414 977.78 414Q978.05 414 983.44 411.84L988.84 409.69L988.84 408.61Q988.84 407.53 987.76 405.37Q986.68 402.95 985.6 401.6Q984.52 400.25 982.91 398.37Q981.29 396.48 978.86 394.59Q976.17 392.44 974.28 391.36Q972.12 390.01 970.51 389.47Q969.16 388.66 968.89 388.66Q968.86 388.66 968.83 388.67ZM923.61 401.33L945.17 401.33L945.17 434.75L923.61 434.75L923.61 401.33ZM1258.64 401.6L1217.67 401.6Q1217.4 401.87 1217.4 404.3L1217.4 406.72L1230.61 406.72L1230.61 408.61Q1230.34 410.5 1229.53 413.19Q1228.72 416.16 1228.44 416.96L1228.18 417.77L1204.73 417.77L1204.73 420.2L1205 422.89L1215.25 422.89Q1225.75 422.89 1225.76 423.16Q1225.76 423.43 1224.14 426.13Q1222.52 428.82 1220.37 431.65Q1218.21 434.48 1214.71 437.99Q1210.93 441.76 1208.51 443.65Q1206.07 445.53 1202.31 448.23Q1198.8 450.39 1197.73 451.19Q1197.19 451.46 1196.9 451.88Q1196.57 452.32 1196.51 452.95Q1196.38 454.16 1196.51 454.83Q1196.52 454.85 1196.52 454.86Q1196.84 455.42 1204.73 451.73Q1212.55 447.69 1216.05 445.53Q1218.75 443.92 1222.52 441.22Q1225.76 438.8 1228.99 435.56Q1232.5 432.06 1234.38 429.63Q1236.27 427.21 1237.07 425.59Q1238.16 423.97 1238.29 423.97Q1238.43 423.97 1239.23 425.32Q1240.04 426.67 1241.93 429.9Q1243.81 432.87 1245.97 435.43Q1248.13 437.99 1251.09 441.22Q1254.32 444.46 1257.56 446.88Q1261.06 449.58 1265.38 452.81Q1270.23 456.32 1270.37 456.32Q1270.5 456.31 1270.5 449.58L1270.5 443.11L1269.68 442.57Q1268.34 441.76 1265.11 439.34Q1261.61 436.91 1258.1 433.94Q1254.32 430.71 1250.55 426.94L1246.78 423.16L1258.91 423.16L1271.31 422.89L1271.31 417.77L1242.74 417.77L1241.39 416.43L1241.93 413.19Q1242.19 409.96 1242.47 408.34L1242.47 406.99L1250.55 406.72L1258.64 406.72L1258.64 401.6ZM1134.12 425.05L1085.6 425.05L1085.6 430.44L1134.12 430.44L1134.12 425.05Z" fill="#FFFFFF" fill-opacity="1.000000" fill-rule="evenodd"/>
		<g filter="url(#filter_2_31_dd)">
			<circle id="椭圆 4" cx="960.000000" cy="540.000000" r="127.000000" fill="#F18009" fill-opacity="1.000000"/>
		</g>
		<g filter="url(#filter_2_32_dd)">
			<circle id="椭圆 5" cx="378.000000" cy="267.000000" r="127.000000" fill="#CF6B00" fill-opacity="1.000000"/>
		</g>
		<g filter="url(#filter_2_33_dd)">
			<circle id="椭圆 6" cx="1717.000000" cy="61.000000" r="127.000000" fill="#FF8300" fill-opacity="1.000000"/>
		</g>
		<g filter="url(#filter_2_16_dd)">
			<path id="矢量 2" d="M1620.49 741.17C1598.16 738.73 1568.51 762.22 1556.73 775.39C1558.49 774.44 1565.91 776.53 1581.5 792.49C1597.1 808.46 1594.5 820.33 1591.25 824.27C1608.72 828.75 1624.96 831.19 1646.08 831.19C1667.2 831.19 1683.04 822.64 1685.48 812.45C1687.92 802.27 1681.42 788.83 1673.7 777.83C1665.98 766.83 1642.83 743.62 1620.49 741.17ZM1587.19 810.82C1590.85 826.71 1565.5 840.31 1543.73 844.22C1521.96 848.13 1483.62 849.52 1478.75 836.49C1473.87 823.45 1493.37 782.72 1523.42 777.42C1553.48 772.13 1583.53 794.94 1587.19 810.82ZM1512.35 799.72C1510.39 797.88 1506.8 798.53 1504.36 801.16C1501.92 803.79 1501.53 807.43 1503.5 809.26C1505.47 811.1 1509.05 810.45 1511.5 807.82C1513.94 805.19 1514.32 801.56 1512.35 799.72ZM1497.09 815.94C1495.07 815.94 1493.43 817.58 1493.43 819.61C1493.43 821.63 1495.07 823.27 1497.09 823.27C1499.11 823.27 1500.74 821.63 1500.74 819.61C1500.74 817.58 1499.11 815.94 1497.09 815.94ZM1582.17 871.11C1582.17 858.72 1587.05 839.06 1589.48 830.78C1591.43 832.09 1612.77 834.86 1623.2 836.08C1622.38 838.66 1620.76 846.18 1620.76 855.63C1620.76 857 1620.92 859.15 1621.13 861.84C1622.34 877.73 1624.97 912.14 1603.29 911.02C1580.87 909.87 1581.59 889.21 1582.06 875.88C1582.12 874.15 1582.17 872.54 1582.17 871.11ZM1555.92 847.48C1554.62 849.11 1537.5 851.96 1529.11 853.19C1532.14 858.26 1531.56 872.21 1531.07 883.67C1530.78 890.61 1530.53 896.63 1531.14 899.21C1532.76 906.06 1537.64 913.14 1550.64 911.84C1563.63 910.54 1565.66 891.55 1565.66 882.1C1565.66 872.66 1557.22 845.85 1555.92 847.48Z" fill="#54ECD7" fill-opacity="1.000000" fill-rule="evenodd"/>
		</g>
		<g filter="url(#filter_2_18_dd)">
			<path id="矢量 2" d="M285.68 784.62C311.74 779.95 342.08 763.72 337.71 744.77C333.33 725.82 297.35 698.61 261.37 704.93C225.39 711.24 202.05 759.84 207.89 775.39C213.72 790.94 259.62 789.28 285.68 784.62ZM238.55 733.25C241.48 730.11 245.77 729.33 248.12 731.53C250.48 733.72 250.02 738.05 247.09 741.19C244.17 744.33 239.88 745.1 237.52 742.91C235.17 740.72 235.63 736.39 238.55 733.25ZM225.47 755.25C225.47 752.84 227.43 750.88 229.85 750.88C232.26 750.88 234.22 752.84 234.22 755.25C234.22 757.67 232.26 759.63 229.85 759.63C227.43 759.63 225.47 757.67 225.47 755.25ZM300.27 788.51C298.71 790.45 278.23 793.85 268.18 795.31C271.81 801.36 271.11 818.01 270.53 831.68C270.18 839.95 269.88 847.14 270.61 850.22C272.55 858.38 278.39 866.84 293.95 865.28C309.51 863.73 311.94 841.08 311.94 829.81C311.94 818.54 301.82 786.56 300.27 788.51Z" fill="#54ECD7" fill-opacity="1.000000" fill-rule="evenodd"/>
		</g>
		<g filter="url(#filter_2_19_dd)">
			<path id="矢量 3" d="M668.99 810.92C651.11 807.74 630.28 796.68 633.29 783.77C636.29 770.86 660.98 752.33 685.68 756.63C710.37 760.93 726.39 794.04 722.38 804.63C718.38 815.22 686.88 814.1 668.99 810.92ZM701.34 775.92C699.33 773.78 696.39 773.26 694.77 774.75C693.15 776.24 693.47 779.19 695.48 781.33C697.48 783.47 700.43 784 702.04 782.5C703.66 781.01 703.35 778.06 701.34 775.92ZM710.32 790.91C710.32 789.27 708.97 787.93 707.31 787.93C705.65 787.93 704.31 789.27 704.31 790.91C704.31 792.56 705.65 793.89 707.31 793.89C708.97 793.89 710.32 792.56 710.32 790.91ZM658.98 813.57C660.05 814.89 674.11 817.21 681 818.2C678.51 822.32 678.99 833.66 679.39 842.98C679.63 848.61 679.84 853.51 679.34 855.61C678 861.17 674 866.93 663.32 865.87C652.64 864.81 650.97 849.38 650.97 841.7C650.97 834.02 657.91 812.24 658.98 813.57Z" fill="#54ECD7" fill-opacity="1.000000" fill-rule="evenodd"/>
		</g>
		<path id="箭头 1" d="M1444.35 555.37L967.42 839.45C960.44 843.61 951.69 841.39 947.54 834.42C943.38 827.44 945.6 818.69 952.58 814.54L1429.5 530.45L1350.99 510.56C1343.12 508.56 1338.5 500.81 1340.5 492.94C1342.49 485.07 1350.24 480.45 1358.12 482.45L1470.56 510.94C1478.43 512.93 1483.05 520.69 1481.06 528.56L1452.56 641C1450.57 648.87 1442.82 653.49 1434.94 651.5C1427.07 649.5 1422.46 641.75 1424.45 633.88L1444.35 555.37Z" fill="url(#paint_linear_2_25_0)" fill-opacity="1.000000" fill-rule="evenodd"/>
		<path id="箭头 2" d="M678.42 572.1L678.24 681.03C678.22 691.95 669.62 700.51 658.7 700.5C647.78 700.48 639.22 691.88 639.24 680.96L639.5 524.96C639.51 514.04 648.11 505.48 659.03 505.5L815.03 505.75C825.95 505.77 834.51 514.37 834.5 525.29C834.48 536.21 825.88 544.77 814.96 544.75L706.04 544.57L973.81 813.23C981.52 820.96 981.5 833.1 973.76 840.81C966.03 848.52 953.89 848.5 946.18 840.76L678.42 572.1Z" fill="url(#paint_linear_2_26_0)" fill-opacity="1.000000" fill-rule="evenodd"/>
		<path id="椭圆 2 (边框)" d="M960 130C949.74 130 939.49 130.19 929.27 130.59C925.29 130.74 921.5 131.65 917.89 133.31C914.27 134.98 911.11 137.27 908.41 140.19C905.71 143.11 903.67 146.43 902.29 150.17C900.91 153.9 900.3 157.75 900.45 161.73C900.6 165.7 901.51 169.5 903.18 173.11C904.84 176.72 907.13 179.88 910.05 182.58C912.97 185.29 916.3 187.33 920.03 188.71C923.76 190.08 927.61 190.7 931.59 190.54C941.04 190.18 950.51 190 960 190C969.48 190 978.95 190.18 988.4 190.54C992.38 190.7 996.23 190.08 999.96 188.71C1001.83 188.02 1003.6 187.16 1005.26 186.14C1006.92 185.12 1008.48 183.93 1009.94 182.58C1012.86 179.88 1015.16 176.72 1016.82 173.11C1018.48 169.49 1019.39 165.7 1019.54 161.73C1019.7 157.75 1019.09 153.9 1017.71 150.16C1016.33 146.43 1014.29 143.11 1011.58 140.19C1010.23 138.73 1008.77 137.42 1007.19 136.28C1005.61 135.13 1003.92 134.14 1002.11 133.31C998.49 131.65 994.7 130.74 990.72 130.59C980.5 130.19 970.25 130 960 130ZM1201.23 167.9C1172.24 158.51 1142.68 150.83 1112.57 144.88C1108.68 144.11 1104.78 144.11 1100.88 144.89C1096.98 145.67 1093.37 147.17 1090.06 149.38C1086.76 151.6 1084.01 154.36 1081.8 157.67C1080.69 159.32 1079.77 161.05 1079.03 162.86C1078.28 164.66 1077.72 166.54 1077.32 168.49C1076.56 172.39 1076.56 176.29 1077.34 180.19C1078.12 184.09 1079.62 187.7 1081.82 191C1084.05 194.31 1086.81 197.06 1090.12 199.27C1093.43 201.48 1097.04 202.97 1100.93 203.74C1128.71 209.23 1155.96 216.31 1182.69 224.97C1209.77 233.74 1236.31 244.13 1262.34 256.15C1265.94 257.81 1269.74 258.73 1273.72 258.89C1277.68 259.04 1281.55 258.44 1285.28 257.06C1289.01 255.69 1292.34 253.65 1295.26 250.95C1298.18 248.25 1300.48 245.1 1302.15 241.49C1303.81 237.87 1304.73 234.08 1304.89 230.11C1304.97 228.12 1304.86 226.16 1304.55 224.23C1304.25 222.31 1303.75 220.41 1303.06 218.54C1301.68 214.81 1299.65 211.48 1296.96 208.56C1294.26 205.64 1291.1 203.34 1287.49 201.67C1259.31 188.66 1230.55 177.4 1201.23 167.9ZM614.06 210.47C583.54 225.54 554.01 242.63 525.48 261.73C522.18 263.94 519.42 266.7 517.21 270.01C515.01 273.32 513.52 276.93 512.74 280.83C511.97 284.73 511.97 288.64 512.75 292.54C513.53 296.44 515.03 300.04 517.24 303.35C519.46 306.65 522.22 309.41 525.53 311.62C528.84 313.82 532.44 315.31 536.35 316.09C538.3 316.47 540.25 316.67 542.2 316.66C544.15 316.66 546.1 316.47 548.05 316.08C551.95 315.3 555.56 313.8 558.86 311.59C585.42 293.81 612.91 277.92 641.33 263.92C663.65 252.92 686.55 243.09 710.03 234.43C713.76 233.05 717.09 231.01 720.01 228.31C722.93 225.61 725.22 222.45 726.89 218.84C728.55 215.23 729.46 211.43 729.62 207.46C729.78 203.48 729.17 199.63 727.79 195.9C726.41 192.17 724.37 188.84 721.67 185.92C718.97 183 715.81 180.7 712.2 179.04C710.39 178.21 708.54 177.56 706.64 177.11C704.75 176.65 702.81 176.39 700.82 176.31C696.84 176.15 692.99 176.76 689.26 178.14C663.55 187.63 638.49 198.4 614.06 210.47ZM407.12 358.96C399.85 366.22 392.73 373.62 385.76 381.17C383.05 384.09 381.01 387.42 379.64 391.15C378.26 394.88 377.65 398.73 377.8 402.71C377.96 406.68 378.87 410.48 380.53 414.09C382.2 417.7 384.49 420.86 387.41 423.56C390.33 426.26 393.66 428.3 397.39 429.68C399.26 430.37 401.15 430.87 403.08 431.17C405.01 431.48 406.96 431.59 408.95 431.51C412.93 431.36 416.72 430.45 420.33 428.78C423.95 427.12 427.1 424.83 429.8 421.91C436.23 414.96 442.78 408.15 449.46 401.47C456.14 394.78 462.96 388.23 469.91 381.8C472.83 379.1 475.12 375.95 476.78 372.33C478.45 368.72 479.36 364.93 479.51 360.95C479.67 356.98 479.06 353.12 477.68 349.39C476.3 345.66 474.26 342.33 471.56 339.41C468.86 336.49 465.7 334.2 462.09 332.53C458.48 330.87 454.68 329.96 450.71 329.8C446.73 329.65 442.88 330.26 439.15 331.64C435.42 333.01 432.09 335.05 429.17 337.76C421.68 344.68 414.33 351.75 407.12 358.96ZM1534.24 381.17C1520.33 366.13 1505.86 351.66 1490.83 337.76C1487.91 335.05 1484.58 333.01 1480.85 331.64C1477.12 330.26 1473.26 329.65 1469.29 329.8C1465.31 329.96 1461.52 330.87 1457.9 332.53C1454.29 334.2 1451.13 336.49 1448.43 339.41C1445.73 342.33 1443.69 345.66 1442.31 349.39C1440.94 353.12 1440.33 356.98 1440.48 360.95C1440.64 364.93 1441.55 368.72 1443.21 372.33C1444.88 375.95 1447.17 379.1 1450.09 381.8C1463.98 394.65 1477.35 408.02 1490.19 421.91C1492.89 424.83 1496.05 427.12 1499.66 428.78C1503.28 430.45 1507.07 431.36 1511.04 431.51C1513.03 431.59 1514.99 431.48 1516.92 431.17C1518.84 430.87 1520.74 430.37 1522.61 429.68C1526.34 428.3 1529.66 426.26 1532.58 423.56C1535.51 420.86 1537.8 417.7 1539.46 414.09C1541.13 410.48 1542.04 406.68 1542.19 402.71C1542.35 398.73 1541.74 394.88 1540.36 391.15C1538.98 387.41 1536.94 384.09 1534.24 381.17ZM1661.53 566.06C1646.45 535.54 1629.37 506.01 1610.27 477.48C1608.05 474.18 1605.29 471.42 1601.98 469.21C1598.67 467.01 1595.07 465.52 1591.16 464.74C1589.21 464.36 1587.26 464.16 1585.31 464.17C1583.36 464.17 1581.41 464.36 1579.46 464.75C1575.56 465.53 1571.95 467.03 1568.65 469.24C1565.34 471.46 1562.58 474.22 1560.38 477.53C1558.17 480.84 1556.68 484.44 1555.91 488.35C1555.14 492.25 1555.14 496.15 1555.92 500.05C1556.31 502 1556.88 503.88 1557.63 505.68C1558.37 507.48 1559.3 509.21 1560.41 510.86C1592.16 558.28 1617.87 608.67 1637.57 662.03C1638.94 665.76 1640.98 669.09 1643.68 672.01C1646.38 674.93 1649.54 677.22 1653.15 678.89C1656.77 680.55 1660.56 681.46 1664.54 681.62C1668.51 681.78 1672.37 681.17 1676.1 679.79C1679.83 678.41 1683.16 676.37 1686.08 673.67C1689 670.97 1691.29 667.81 1692.96 664.2C1693.79 662.39 1694.43 660.54 1694.89 658.64C1695.34 656.75 1695.61 654.81 1695.69 652.82C1695.84 648.84 1695.23 644.99 1693.86 641.26C1684.37 615.55 1673.59 590.49 1661.53 566.06ZM215.9 670.78C206.51 699.77 198.83 729.31 192.88 759.41C192.49 761.36 192.3 763.31 192.3 765.26C192.31 767.22 192.5 769.17 192.89 771.12C193.67 775.02 195.17 778.62 197.38 781.93C198.49 783.58 199.73 785.09 201.11 786.47C202.49 787.85 204.01 789.09 205.67 790.2C208.98 792.4 212.58 793.89 216.49 794.66C218.44 795.05 220.39 795.24 222.34 795.24C224.29 795.24 226.24 795.04 228.19 794.65C232.09 793.87 235.7 792.37 239 790.16C240.65 789.05 242.17 787.81 243.55 786.43C244.93 785.05 246.17 783.53 247.27 781.87C249.48 778.56 250.97 774.96 251.74 771.06C257.23 743.3 264.31 716.05 272.96 689.31C281.73 662.24 292.13 635.68 304.15 609.66C305.81 606.05 306.73 602.25 306.89 598.28C307.04 594.3 306.44 590.45 305.06 586.72C303.69 582.98 301.65 579.65 298.95 576.73C296.25 573.81 293.1 571.51 289.49 569.85C287.68 569.01 285.83 568.37 283.93 567.91C282.04 567.45 280.09 567.19 278.11 567.11C274.13 566.95 270.28 567.56 266.54 568.93C262.81 570.3 259.48 572.34 256.56 575.04C253.64 577.74 251.34 580.89 249.67 584.51C236.66 612.69 225.4 641.45 215.9 670.78ZM1742 912C1742 901.74 1741.8 891.49 1741.41 881.27C1741.25 877.29 1740.34 873.5 1738.68 869.89C1737.85 868.08 1736.86 866.38 1735.71 864.8C1734.57 863.23 1733.27 861.76 1731.81 860.41C1728.89 857.71 1725.56 855.67 1721.83 854.29C1718.1 852.91 1714.25 852.3 1710.27 852.45C1706.3 852.6 1702.5 853.51 1698.89 855.18C1695.27 856.84 1692.11 859.13 1689.41 862.05C1686.71 864.97 1684.67 868.3 1683.29 872.03C1681.91 875.76 1681.3 879.61 1681.45 883.59C1681.82 893.04 1682 902.51 1682 912C1682 921.48 1681.82 930.95 1681.45 940.4C1681.3 944.38 1681.91 948.23 1683.29 951.96C1684.67 955.69 1686.71 959.02 1689.41 961.94C1692.11 964.86 1695.27 967.15 1698.89 968.81C1702.5 970.48 1706.29 971.39 1710.27 971.54C1712.26 971.62 1714.22 971.5 1716.14 971.2C1718.07 970.89 1719.96 970.39 1721.83 969.7C1725.56 968.32 1728.89 966.28 1731.81 963.58C1734.73 960.88 1737.02 957.72 1738.68 954.11C1740.34 950.49 1741.25 946.7 1741.41 942.72C1741.8 932.5 1742 922.25 1742 912ZM178 912C178 922.25 178.19 932.5 178.59 942.72C178.74 946.7 179.65 950.49 181.31 954.1C182.15 955.91 183.13 957.6 184.28 959.18C185.42 960.76 186.73 962.23 188.19 963.58C191.11 966.28 194.43 968.32 198.16 969.7C201.9 971.08 205.75 971.69 209.72 971.54C213.7 971.39 217.49 970.48 221.11 968.81C224.72 967.15 227.88 964.86 230.58 961.94C233.28 959.02 235.33 955.7 236.71 951.96C238.08 948.23 238.7 944.38 238.54 940.4C238.18 930.95 238 921.48 238 912C238 902.51 238.18 893.04 238.54 883.59C238.7 879.61 238.08 875.76 236.71 872.03C236.02 870.16 235.16 868.4 234.14 866.73C233.12 865.07 231.93 863.51 230.58 862.05C229.23 860.59 227.77 859.29 226.19 858.14C224.61 857 222.92 856.01 221.11 855.18C219.3 854.34 217.45 853.7 215.55 853.25C213.66 852.79 211.71 852.53 209.73 852.45C205.75 852.3 201.9 852.91 198.16 854.29C194.43 855.67 191.11 857.71 188.19 860.41C185.27 863.11 182.98 866.27 181.31 869.89C179.65 873.5 178.74 877.29 178.59 881.27C178.19 891.49 178 901.74 178 912ZM1704.13 1153.11C1713.51 1124.15 1721.17 1094.65 1727.12 1064.57C1727.89 1060.68 1727.88 1056.78 1727.1 1052.88C1726.32 1048.98 1724.83 1045.37 1722.61 1042.06C1720.4 1038.76 1717.64 1036.01 1714.33 1033.8C1711.02 1031.59 1707.41 1030.1 1703.51 1029.32C1699.61 1028.56 1695.7 1028.56 1691.8 1029.34C1687.9 1030.12 1684.3 1031.62 1680.99 1033.84C1677.69 1036.05 1674.93 1038.81 1672.72 1042.12C1670.52 1045.43 1669.03 1049.04 1668.26 1052.93C1657.2 1108.81 1639.73 1162.61 1615.85 1214.34C1614.18 1217.94 1613.27 1221.74 1613.11 1225.72C1612.95 1229.68 1613.56 1233.55 1614.93 1237.28C1616.31 1241.01 1618.34 1244.34 1621.04 1247.26C1623.74 1250.18 1626.9 1252.48 1630.51 1254.15C1634.12 1255.81 1637.91 1256.73 1641.89 1256.89C1643.88 1256.97 1645.83 1256.86 1647.76 1256.55C1649.69 1256.25 1651.58 1255.75 1653.45 1255.06C1657.19 1253.68 1660.51 1251.65 1663.44 1248.96C1666.36 1246.26 1668.65 1243.1 1670.32 1239.49C1683.36 1211.27 1694.63 1182.47 1704.13 1153.11ZM226.14 1182.74C247.48 1240.55 275.34 1295.14 309.73 1346.51C311.94 1349.82 314.7 1352.57 318.01 1354.78C321.32 1356.99 324.93 1358.48 328.83 1359.25C330.78 1359.64 332.73 1359.83 334.68 1359.83C336.64 1359.83 338.59 1359.63 340.54 1359.24C344.44 1358.46 348.04 1356.97 351.35 1354.75C354.65 1352.54 357.41 1349.78 359.62 1346.47C361.82 1343.16 363.31 1339.55 364.09 1335.65C364.86 1331.75 364.86 1327.84 364.08 1323.94C363.3 1320.04 361.8 1316.44 359.59 1313.13C341.8 1286.56 325.9 1259.06 311.9 1230.63C300.91 1208.31 291.09 1185.43 282.43 1161.97C281.05 1158.23 279.01 1154.91 276.31 1151.99C274.96 1150.52 273.5 1149.22 271.92 1148.06C270.34 1146.93 268.65 1145.93 266.84 1145.11C263.23 1143.43 259.43 1142.53 255.46 1142.38C251.48 1142.22 247.63 1142.82 243.9 1144.21C240.17 1145.57 236.84 1147.62 233.92 1150.31C231 1153.03 228.7 1156.18 227.04 1159.8C226.21 1161.6 225.56 1163.44 225.11 1165.35C224.65 1167.25 224.39 1169.18 224.31 1171.18C224.15 1175.15 224.76 1179.01 226.14 1182.74ZM1490.83 1486.24C1505.86 1472.33 1520.33 1457.86 1534.24 1442.83C1536.94 1439.91 1538.98 1436.58 1540.36 1432.85C1541.74 1429.12 1542.35 1425.26 1542.19 1421.29C1542.04 1417.31 1541.13 1413.52 1539.46 1409.9C1537.8 1406.29 1535.51 1403.13 1532.58 1400.43C1531.12 1399.08 1529.56 1397.9 1527.9 1396.88C1526.23 1395.86 1524.47 1395 1522.61 1394.31C1518.87 1392.94 1515.02 1392.33 1511.04 1392.48C1507.07 1392.64 1503.28 1393.55 1499.66 1395.21C1496.05 1396.88 1492.89 1399.17 1490.19 1402.09C1477.35 1415.98 1463.98 1429.35 1450.09 1442.19C1447.17 1444.89 1444.88 1448.05 1443.21 1451.66C1441.55 1455.28 1440.64 1459.07 1440.48 1463.04C1440.33 1467.02 1440.94 1470.87 1442.32 1474.61C1443.69 1478.34 1445.73 1481.66 1448.43 1484.58C1451.13 1487.51 1454.29 1489.8 1457.9 1491.46C1461.52 1493.13 1465.31 1494.04 1469.29 1494.19C1473.26 1494.35 1477.12 1493.74 1480.85 1492.36C1482.72 1491.67 1484.48 1490.81 1486.14 1489.79C1487.81 1488.77 1489.37 1487.59 1490.83 1486.24ZM385.76 1442.83C399.66 1457.86 414.13 1472.33 429.17 1486.24C432.09 1488.94 435.41 1490.98 439.15 1492.36C442.88 1493.74 446.73 1494.35 450.71 1494.19C454.68 1494.04 458.48 1493.13 462.09 1491.46C465.7 1489.8 468.86 1487.51 471.56 1484.58C472.91 1483.12 474.1 1481.56 475.12 1479.9C476.14 1478.24 476.99 1476.47 477.68 1474.61C479.06 1470.87 479.67 1467.02 479.51 1463.04C479.36 1459.07 478.45 1455.27 476.78 1451.66C475.12 1448.05 472.83 1444.89 469.91 1442.19C456.02 1429.35 442.65 1415.98 429.8 1402.09C427.1 1399.17 423.95 1396.88 420.33 1395.21C416.72 1393.55 412.93 1392.64 408.95 1392.48C404.98 1392.33 401.12 1392.94 397.39 1394.31C393.66 1395.69 390.33 1397.73 387.41 1400.43C385.95 1401.78 384.65 1403.25 383.5 1404.83C382.35 1406.41 381.36 1408.1 380.53 1409.9C378.87 1413.52 377.96 1417.31 377.8 1421.29C377.65 1425.26 378.26 1429.12 379.64 1432.85C381.01 1436.58 383.05 1439.91 385.76 1442.83ZM1230.74 1645.86C1288.55 1624.52 1343.15 1596.66 1394.51 1562.27C1397.82 1560.05 1400.57 1557.29 1402.78 1553.98C1404.99 1550.67 1406.48 1547.07 1407.25 1543.16C1407.64 1541.21 1407.83 1539.26 1407.83 1537.31C1407.83 1535.36 1407.63 1533.41 1407.24 1531.46C1406.46 1527.56 1404.97 1523.95 1402.75 1520.65C1400.54 1517.34 1397.78 1514.58 1394.47 1512.38C1391.16 1510.17 1387.55 1508.68 1383.65 1507.91C1379.75 1507.14 1375.84 1507.14 1371.94 1507.92C1368.04 1508.7 1364.44 1510.19 1361.13 1512.41C1334.57 1530.19 1307.06 1546.09 1278.64 1560.09C1256.32 1571.08 1233.43 1580.91 1209.97 1589.57C1206.23 1590.94 1202.91 1592.98 1199.99 1595.68C1197.06 1598.38 1194.77 1601.54 1193.11 1605.15C1191.43 1608.77 1190.53 1612.56 1190.38 1616.54C1190.3 1618.52 1190.41 1620.48 1190.72 1622.4C1191.02 1624.33 1191.52 1626.23 1192.21 1628.1C1193.57 1631.83 1195.62 1635.16 1198.31 1638.08C1199.67 1639.54 1201.14 1640.84 1202.72 1641.99C1204.3 1643.13 1205.99 1644.12 1207.8 1644.96C1211.41 1646.62 1215.19 1647.53 1219.18 1647.69C1223.15 1647.84 1227.01 1647.23 1230.74 1645.86ZM718.89 1656.13C747.84 1665.51 777.35 1673.17 807.41 1679.12C811.31 1679.89 815.22 1679.88 819.12 1679.1C823.02 1678.32 826.62 1676.83 829.93 1674.61C833.23 1672.4 835.99 1669.64 838.2 1666.33C840.4 1663.02 841.89 1659.41 842.66 1655.51C843.44 1651.61 843.43 1647.7 842.65 1643.8C841.87 1639.9 840.37 1636.3 838.16 1632.99C835.95 1629.69 833.18 1626.93 829.87 1624.72C826.56 1622.52 822.96 1621.03 819.06 1620.26C763.18 1609.2 709.38 1591.73 657.66 1567.85C654.05 1566.18 650.25 1565.27 646.28 1565.11C642.3 1564.95 638.45 1565.56 634.72 1566.93C630.98 1568.31 627.65 1570.34 624.73 1573.04C621.81 1575.74 619.51 1578.9 617.84 1582.51C617.01 1584.31 616.37 1586.16 615.91 1588.06C615.45 1589.96 615.19 1591.9 615.11 1593.89C614.95 1597.86 615.56 1601.72 616.93 1605.45C618.3 1609.18 620.34 1612.51 623.04 1615.44C625.74 1618.36 628.89 1620.65 632.5 1622.32C660.73 1635.36 689.53 1646.63 718.89 1656.13ZM960 1694C970.25 1694 980.5 1693.8 990.72 1693.41C994.7 1693.25 998.49 1692.34 1002.11 1690.68C1003.92 1689.85 1005.61 1688.86 1007.19 1687.72C1008.77 1686.57 1010.23 1685.27 1011.58 1683.81C1014.29 1680.89 1016.33 1677.56 1017.71 1673.83C1019.09 1670.1 1019.7 1666.25 1019.54 1662.27C1019.39 1658.3 1018.48 1654.5 1016.82 1650.89C1015.16 1647.27 1012.86 1644.11 1009.95 1641.41C1007.03 1638.71 1003.7 1636.67 999.96 1635.29C996.23 1633.91 992.38 1633.3 988.4 1633.45C978.95 1633.82 969.48 1634 960 1634C950.51 1634 941.04 1633.82 931.59 1633.45C927.61 1633.3 923.76 1633.91 920.03 1635.29C916.3 1636.67 912.97 1638.71 910.05 1641.41C907.13 1644.11 904.84 1647.27 903.18 1650.89C901.51 1654.5 900.6 1658.29 900.45 1662.27C900.3 1666.25 900.91 1670.1 902.29 1673.83C903.67 1677.56 905.71 1680.89 908.41 1683.81C911.11 1686.73 914.27 1689.02 917.89 1690.68C921.5 1692.34 925.29 1693.25 929.27 1693.41C939.5 1693.8 949.74 1694 960 1694Z" fill="url(#paint_linear_16_3_0)" fill-opacity="1.000000" fill-rule="evenodd"/>
		<circle id="椭圆 1" cx="960.000000" cy="912.000000" r="855.000000" stroke="url(#paint_linear_2_23_0)" stroke-opacity="1.000000" stroke-width="25.000000" stroke-dasharray="0 0"/>
		<path id="减去顶层" d="M839.731 756.276C827.51 777.013 820.5 801.188 820.5 827C820.5 904.044 882.956 966.5 960 966.5C1037.04 966.5 1099.5 904.044 1099.5 827C1099.5 811.743 1097.05 797.057 1092.52 783.316C1091.56 780.386 1088.13 779.166 1085.46 780.708L1072.09 788.427C1070.03 789.617 1069.11 792.092 1069.78 794.374C1072.85 804.714 1074.5 815.664 1074.5 827C1074.5 890.237 1023.24 941.5 960 941.5C896.763 941.5 845.5 890.237 845.5 827C845.5 807.294 850.478 788.75 859.246 772.558C860.329 770.558 860.02 768.071 858.411 766.462L847.343 755.394C845.095 753.147 841.345 753.538 839.731 756.276ZM892.22 712.169L903.415 723.363C904.973 724.921 907.363 725.266 909.338 724.289C924.611 716.741 941.81 712.5 960 712.5C991.134 712.5 1019.37 724.926 1040.01 745.09C1041.65 746.7 1044.17 747.07 1046.17 745.918L1059.66 738.127C1062.39 736.551 1063 732.868 1060.82 730.59C1035.43 704.037 999.644 687.5 960 687.5C935.814 687.5 913.065 693.655 893.235 704.484C890.389 706.039 889.928 709.876 892.22 712.169Z" clip-rule="evenodd" fill="url(#paint_linear_2_37_0)" fill-opacity="1.000000" fill-rule="evenodd"/>
		<path id="地面" d="M0 863.83C100.42 846.89 358.81 827 503.5 827C648.18 827 885.26 910 1225 910C1564.73 910 1842.89 852.42 1920 846.72L1920 1125L0 1125L0 863.83Z" fill="#430808" fill-opacity="1.000000" fill-rule="evenodd"/>
	</g>
</svg>
